<svg id="Layer_1" data-name="Layer 1" xmlns="http://www.w3.org/2000/svg" viewBox="0 0 1024 768"><defs><style>.cls-1{fill:#fff;fill-rule:evenodd;}</style></defs><title>brand</title><path class="cls-1" d="M81.2,220.84v-1h53c43.5,130.15,94,253.32,139,381.86,59.33-125.36,116-253.44,172.28-381.86h53C430.9,363.35,361.58,505,296,650.46c-16.09-1.56-33.51-1-49.77,0C193.82,504.65,137,363.27,81.2,220.84Z"/><path class="cls-1" d="M571.85,129.47a47.71,47.71,0,1,1-47.71-47.75A47.7,47.7,0,0,1,571.85,129.47Z"/><path class="cls-1" d="M713.86,211.45c-128.41,0-232.53,106.15-232.53,237.14s104.12,237.2,232.53,237.2c74.39,0,140.69-35.78,183.23-91.3H840.28A187.76,187.76,0,0,1,713.86,643.4c-105.45,0-191-87.2-191-194.81s85.58-194.72,191-194.72c102.86,0,186.67,83,190.72,186.89V670.94H945V423.85C933,304.5,834,211.45,713.86,211.45Z"/></svg>